<?xml version="1.0" encoding="UTF-8"?>
<!DOCTYPE svg PUBLIC "-//W3C//DTD SVG 1.0//EN" "http://www.w3.org/TR/2001/REC-SVG-20010904/DTD/svg10.dtd">
<!-- Creator: CorelDRAW 2021 (64 Bit) -->
<svg xmlns="http://www.w3.org/2000/svg" xml:space="preserve" width="50mm" height="20.21mm" version="1.0" style="shape-rendering:geometricPrecision; text-rendering:geometricPrecision; image-rendering:optimizeQuality; fill-rule:evenodd; clip-rule:evenodd"
viewBox="0 0 5000 2021"
 xmlns:xlink="http://www.w3.org/1999/xlink"
 xmlns:xodm="http://www.corel.com/coreldraw/odm/2003">
 <defs>
  <style type="text/css">
   <![CDATA[
    .str0 {stroke:#4164B3;stroke-width:20;stroke-linecap:round;stroke-linejoin:round;stroke-miterlimit:22.9256}
    .fil1 {fill:none;fill-rule:nonzero}
    .fil0 {fill:#4164B3;fill-rule:nonzero}
   ]]>
  </style>
 </defs>
 <g id="Camada_x0020_1">
  <metadata id="CorelCorpID_0Corel-Layer"/>
  <g>
   <path class="fil0" d="M2653.69 1022.7c-56.39,0 -106.66,-12.17 -150.86,-36.54 -44.19,-24.36 -78.82,-57.76 -103.88,-100.21 -25.07,-42.47 -37.59,-91.19 -37.59,-146.18 0,-54.99 12.52,-103.7 37.59,-146.15 25.06,-42.47 59.69,-75.7 103.88,-99.7 44.2,-24.02 94.47,-36.03 150.86,-36.03 50.11,0 94.83,9.92 134.15,29.75 39.33,19.85 69.78,49.24 91.36,88.22l-76.22 49.08c-18.1,-27.15 -40.19,-47.17 -66.3,-60.04 -26.09,-12.87 -54.11,-19.31 -84.04,-19.31 -36.19,0 -68.56,8 -97.09,24.01 -28.54,16.01 -51.16,38.45 -67.86,67.33 -16.71,28.9 -25.05,63.17 -25.05,102.84 0,39.68 8.34,74.13 25.05,103.36 16.7,29.23 39.32,51.85 67.86,67.86 28.53,16.01 60.9,24.02 97.09,24.02 29.93,0 57.95,-6.44 84.04,-19.32 26.11,-12.87 48.2,-32.88 66.3,-60.02l76.22 48.02c-21.58,38.28 -52.03,67.69 -91.36,88.22 -39.32,20.53 -84.04,30.79 -134.15,30.79zm-68.58 770.63c-45.1,0 -85.37,-9.96 -120.81,-29.87 -35.44,-19.92 -63.42,-47.74 -83.92,-83.47 -20.5,-35.73 -30.75,-77.33 -30.75,-124.78 0,-47.44 10.25,-88.89 30.75,-124.33 20.5,-35.44 48.48,-63.1 83.92,-83.03 35.44,-19.92 75.71,-29.88 120.81,-29.88 39.25,0 74.69,8.79 106.32,26.36 21.71,12.07 40.46,28.27 56.23,48.6 7.21,9.31 13.81,19.46 19.77,30.49 19.04,35.15 28.57,79.08 28.57,131.79 0,52.72 -9.24,96.66 -27.69,131.81 -5.19,9.89 -10.9,19.08 -17.14,27.6 -15.92,21.77 -35.25,39.06 -57.99,51.91 -31.63,17.86 -67.65,26.8 -108.07,26.8zm-2582.41 235.05l1433.86 0.82c2.03,-38.89 5.31,-391.58 -3.24,-400.42 -13.6,-8.47 -94.23,-17.2 -119.1,-24.27 -37.99,-10.78 -73.59,-24.65 -106.45,-41.26 -63.42,-32.05 -126.61,-77.55 -167.85,-123.48 -88.51,-98.6 -167.89,-229.02 -168.69,-417.42 -1.16,-271.85 180.97,-512.34 439.36,-585.57 38.91,-11.02 89.5,-11.88 122.77,-25.45 9.64,-31.13 4.87,-255.74 2.64,-305.85l-1381.21 -0.65c2.79,-8.37 38.09,-36.46 45.07,-42.45 26.77,-22.95 39.04,-15.34 81.66,-15.22l1137.15 0.04c57.85,-0.08 137.69,-4.5 192.96,1.3 2.98,70.76 -9.58,320.3 3.47,365.88l28.72 1.52 0.85 -404.09c-427.93,-8.01 -895.67,-0.2 -1330.8,-0.27 -120.81,-0.03 -95.1,-7.11 -165.9,54.53 -13.4,11.68 -18.55,15.36 -30.32,25.18 -15.17,12.66 -15.8,14.51 -16.04,38.63 -4.64,475.73 0.56,972.27 0.31,1451.84 -0.06,100.68 -4.65,366.11 0.78,446.66zm1512.14 -106.74l27.72 0.08 2.16 -297.39 -29.77 1.24c-5.76,22.09 -5.79,273.77 -0.11,296.07zm-114.38 -926.38l29.63 49.46 141.87 240.21 58.73 -23.82 -131.99 -250.54c21.51,-18.03 49.91,-33.72 73.79,-48.62l241.23 -156.93 -29.06 -47.14c-28.3,7.83 -360.68,220.5 -384.2,237.38zm1191.68 724.27c29.29,0 55.8,-6.74 79.53,-20.21 23.72,-13.47 42.46,-32.66 56.23,-57.56 13.76,-24.89 20.64,-53.75 20.64,-86.55 0,-33.38 -6.88,-62.24 -20.64,-86.55 -13.77,-24.31 -32.51,-43.19 -56.23,-56.66 -23.73,-13.47 -50.24,-20.21 -79.53,-20.21 -29.87,0 -56.52,6.74 -79.95,20.21 -23.43,13.47 -42.17,32.35 -56.25,56.66 -14.05,24.31 -21.08,53.17 -21.08,86.55 0,32.8 7.03,61.66 21.08,86.55 14.08,24.9 32.82,44.09 56.25,57.56 23.43,13.47 50.08,20.21 79.95,20.21zm159.03 68.53l0 -73.44 0 -52.2 5.29 -108.09 -8.8 -108.07 0 -53.33 0 -256.83 84.36 0 0 651.96 -80.85 0zm440.22 5.27c-46.86,-0.58 -88.45,-10.99 -124.77,-31.2 -36.33,-20.2 -64.87,-48.17 -85.67,-83.9 -20.79,-35.73 -31.2,-76.74 -31.2,-123.02 -0.58,-46.27 9.82,-87.13 31.2,-122.57 21.38,-35.44 50.08,-63.4 86.11,-83.92 36.02,-20.5 77.17,-30.75 123.45,-30.75 46.86,0 88.6,10.25 125.21,30.75 36.61,20.52 65.31,48.48 86.1,83.92 20.8,35.44 31.2,76.3 31.2,122.57 0,46.28 -10.4,87.29 -31.2,123.02 -20.79,35.73 -49.63,63.7 -86.55,83.9 -36.9,20.21 -78.2,30.62 -123.88,31.2zm0 -73.8c29.87,0 56.67,-6.74 80.4,-20.21 23.72,-13.47 42.31,-32.66 55.78,-57.56 13.47,-24.89 20.5,-53.75 21.09,-86.55 -0.59,-33.38 -7.62,-62.24 -21.09,-86.55 -13.47,-24.31 -32.06,-43.19 -55.78,-56.66 -23.73,-13.47 -50.53,-20.5 -80.4,-21.09 -29.88,0.59 -56.53,7.62 -79.96,21.09 -23.43,13.47 -42.17,32.35 -56.24,56.66 -14.06,24.31 -21.09,53.17 -21.09,86.55 0,32.8 7.03,61.66 21.09,86.55 14.07,24.9 32.66,44.09 55.8,57.56 23.13,13.47 49.94,20.21 80.4,20.21zm787.28 73.8c-45.11,0 -85.38,-9.96 -120.82,-29.87 -35.44,-19.92 -63.41,-47.74 -83.91,-83.47 -20.5,-35.73 -30.76,-77.33 -30.76,-124.78 0,-47.44 10.26,-88.89 30.76,-124.33 20.5,-35.44 48.47,-63.1 83.91,-83.03 35.44,-19.92 75.71,-29.88 120.82,-29.88 39.24,0 74.68,8.79 106.31,26.36 21.71,12.07 40.46,28.27 56.23,48.6 7.21,9.31 13.81,19.46 19.78,30.49 19.03,35.15 28.56,79.08 28.56,131.79 0,52.72 -9.23,96.66 -27.68,131.81 -5.19,9.89 -10.91,19.08 -17.14,27.6 -15.93,21.77 -35.26,39.06 -57.99,51.91 -31.63,17.86 -67.66,26.8 -108.07,26.8zm7.03 -73.8c29.28,0 55.8,-6.74 79.52,-20.21 23.72,-13.47 42.46,-32.66 56.23,-57.56 13.76,-24.89 20.64,-53.75 20.64,-86.55 0,-33.38 -6.88,-62.24 -20.64,-86.55 -13.77,-24.31 -32.51,-43.19 -56.23,-56.66 -23.72,-13.47 -50.24,-20.21 -79.52,-20.21 -29.88,0 -56.53,6.74 -79.96,20.21 -23.43,13.47 -42.17,32.35 -56.24,56.66 -14.06,24.31 -21.09,53.17 -21.09,86.55 0,32.8 7.03,61.66 21.09,86.55 14.07,24.9 32.81,44.09 56.24,57.56 23.43,13.47 50.08,20.21 79.96,20.21zm159.03 68.53l0 -73.44 0 -52.2 5.28 -108.09 -8.8 -108.07 0 -53.33 0 -256.83 84.36 0 0 651.96 -80.84 0zm241.63 0l-0.88 -465.69 84.36 0.87 0 464.82 -83.48 0zm41.29 -555.31c-16.4,0 -30.01,-5.27 -40.85,-15.82 -10.83,-10.54 -16.26,-23.43 -16.26,-38.66 0,-15.81 5.43,-28.99 16.26,-39.53 10.84,-10.55 24.45,-15.82 40.85,-15.82 16.4,0 30.03,5.12 40.87,15.37 10.83,10.25 16.26,23 16.26,38.23 0,15.81 -5.27,29.14 -15.82,39.98 -10.54,10.84 -24.32,16.25 -41.31,16.25zm492.06 555.31l0 -61.13 0 -37.27 -4.4 -18.46 0 -25.48 16.7 57.99c-3.34,8.26 -7.44,16 -12.3,23.22 -11.36,16.89 -26.88,30.95 -46.57,42.23 -28.12,16.11 -63.55,24.17 -106.31,24.17 -34.56,0 -64.88,-5.86 -90.95,-17.57 -26.06,-11.72 -46.13,-27.98 -60.19,-48.77 -14.06,-20.79 -21.09,-44.36 -21.09,-70.72 0,-25.2 6.01,-48.05 18.02,-68.55 12.01,-20.5 31.63,-36.9 58.87,-49.2 27.24,-12.3 64,-18.45 110.27,-18.45l133.55 0 14.06 0 0 60.62 -14.06 0 -130.03 0c-42.18,0 -70.58,7.03 -85.23,21.09 -14.66,14.06 -21.98,31.04 -21.98,50.97 0,22.85 9.08,41.14 27.25,54.91 18.16,13.76 43.35,20.65 75.56,20.65 31.63,0 59.3,-7.02 83.04,-21.08 23.72,-14.06 40.85,-34.56 51.39,-61.51l4.4 142.34zm-4.4 -142.34l0 -65.03 0 -60.62 0 -16.7c0,-35.73 -10.39,-63.41 -31.18,-83.03 -20.8,-19.62 -51.99,-29.43 -93.58,-29.43 -27.53,0 -54.48,4.53 -80.83,13.61 -26.38,9.08 -48.63,21.24 -66.79,36.47l-35.15 -63.26c24.02,-19.33 52.87,-34.12 86.55,-44.37 33.68,-10.25 68.98,-15.39 105.88,-15.39 63.85,0 113.05,15.53 147.61,46.58 34.56,31.05 51.85,78.49 51.85,142.34l0 281.17 -79.96 0 -4.4 -142.34zm-1678.03 -623.02c-55.67,-0.69 -105.08,-13.05 -148.24,-37.05 -43.15,-24.02 -77.09,-57.25 -101.78,-99.7 -24.72,-42.47 -37.07,-91.19 -37.07,-146.18 -0.7,-54.99 11.66,-103.53 37.07,-145.64 25.39,-42.1 59.5,-75.33 102.31,-99.7 42.8,-24.36 91.69,-36.54 146.68,-36.54 55.68,0 105.27,12.18 148.77,36.54 43.5,24.37 77.61,57.6 102.31,99.7 24.71,42.11 37.07,90.65 37.07,145.64 0,54.99 -12.36,103.71 -37.07,146.18 -24.7,42.45 -58.98,75.68 -102.83,99.7 -43.85,24 -92.92,36.36 -147.22,37.05zm0 -87.69c35.51,0 67.35,-8.01 95.54,-24.02 28.18,-16.01 50.29,-38.8 66.3,-68.38 16.01,-29.58 24.36,-63.86 25.04,-102.84 -0.68,-39.67 -9.03,-73.94 -25.04,-102.84 -16.01,-28.88 -38.12,-51.32 -66.3,-67.33 -28.19,-16.01 -60.03,-24.36 -95.54,-25.06 -35.49,0.7 -67.16,9.05 -95,25.06 -27.83,16.01 -50.11,38.45 -66.81,67.33 -16.71,28.9 -25.05,63.17 -25.05,102.84 0,38.98 8.34,73.26 25.05,102.84 16.7,29.58 38.79,52.37 66.3,68.38 27.48,16.01 59.32,24.02 95.51,24.02zm425.96 81.43l0 -553.33 96.05 0 0 92.78 0 57.56 -9.38 -37.59c2.79,-6.96 5.91,-13.61 9.38,-19.97 15.64,-28.63 38.26,-51.21 67.86,-67.72 36.2,-20.18 80.74,-30.28 133.64,-30.28l0 97.1c-4.17,-0.7 -8.17,-1.05 -12.01,-1.05 -3.82,0 -7.47,0 -10.96,0 -53.58,0 -96.05,16.01 -127.36,48.03 -31.32,32.01 -46.98,78.3 -46.98,138.85l0 275.62 -100.24 0zm420.75 0l0 -553.33 96.05 0 0 92.78 0 57.56 -9.39 -37.59c2.79,-6.96 5.91,-13.61 9.39,-19.97 15.63,-28.63 38.25,-51.21 67.86,-67.72 36.19,-20.18 80.73,-30.28 133.63,-30.28l0 97.1c-4.17,-0.7 -8.17,-1.05 -12,-1.05 -3.83,0 -7.48,0 -10.97,0 -53.58,0 -96.04,16.01 -127.35,48.03 -31.33,32.01 -46.99,78.3 -46.99,138.85l0 275.62 -100.23 0zm661.9 6.26c-59.16,0 -111.18,-12.17 -156.07,-36.54 -44.89,-24.36 -79.7,-57.76 -104.4,-100.21 -24.71,-42.47 -37.07,-91.19 -37.07,-146.18 0,-54.99 12.01,-103.7 36.02,-146.15 24.02,-42.47 57.07,-75.7 99.17,-99.7 42.12,-24.02 89.62,-36.03 142.52,-36.03 53.6,0 100.92,11.83 141.99,35.5 41.06,23.66 73.26,56.9 96.56,99.7 23.32,42.81 34.98,92.74 34.98,149.82 0,4.17 -0.17,9.04 -0.52,14.62 -0.35,5.56 -0.88,10.78 -1.57,15.66l-449.25 0 -21.59 0 0 -72.05 21.35 0 355.68 0 41.61 0 -40.71 25.06c0.16,-8.57 -0.13,-16.93 -0.9,-25.06 -2.41,-25.52 -9.41,-48.82 -21.03,-69.94 -15.31,-27.85 -36.37,-49.59 -63.16,-65.25 -26.8,-15.66 -57.95,-23.49 -93.44,-23.49 -34.79,0 -65.77,7.83 -92.92,23.49 -27.14,15.66 -48.37,37.58 -63.68,65.77 -11.37,20.93 -18.52,44.07 -21.45,69.42 -1.02,8.79 -1.52,17.84 -1.52,27.16l0 16.69c0,9.68 0.58,19.08 1.76,28.2 3.3,25.67 11.24,49.16 23.82,70.47 17.05,28.88 40.89,51.32 71.51,67.33 30.63,16.01 65.77,24.02 105.45,24.02 32.7,0 62.47,-5.57 89.26,-16.71 26.8,-11.13 50.29,-27.84 70.47,-50.11l55.34 64.73c-25.07,29.23 -56.21,51.5 -93.44,66.81 -37.24,15.32 -78.83,22.97 -124.77,22.97z"/>
   <path id="_1" class="fil1 str0" d="M2653.69 1022.7c-56.39,0 -106.66,-12.17 -150.86,-36.54 -44.19,-24.36 -78.82,-57.76 -103.88,-100.21 -25.07,-42.47 -37.59,-91.19 -37.59,-146.18 0,-54.99 12.52,-103.7 37.59,-146.15 25.06,-42.47 59.69,-75.7 103.88,-99.7 44.2,-24.02 94.47,-36.03 150.86,-36.03 50.11,0 94.83,9.92 134.15,29.75 39.33,19.85 69.78,49.24 91.36,88.22l-76.22 49.08c-18.1,-27.15 -40.19,-47.17 -66.3,-60.04 -26.09,-12.87 -54.11,-19.31 -84.04,-19.31 -36.19,0 -68.56,8 -97.09,24.01 -28.54,16.01 -51.16,38.45 -67.86,67.33 -16.71,28.9 -25.05,63.17 -25.05,102.84 0,39.68 8.34,74.13 25.05,103.36 16.7,29.23 39.32,51.85 67.86,67.86 28.53,16.01 60.9,24.02 97.09,24.02 29.93,0 57.95,-6.44 84.04,-19.32 26.11,-12.87 48.2,-32.88 66.3,-60.02l76.22 48.02c-21.58,38.28 -52.03,67.69 -91.36,88.22 -39.32,20.53 -84.04,30.79 -134.15,30.79zm-68.58 770.63c-45.1,0 -85.37,-9.96 -120.81,-29.87 -35.44,-19.92 -63.42,-47.74 -83.92,-83.47 -20.5,-35.73 -30.75,-77.33 -30.75,-124.78 0,-47.44 10.25,-88.89 30.75,-124.33 20.5,-35.44 48.48,-63.1 83.92,-83.03 35.44,-19.92 75.71,-29.88 120.81,-29.88 39.25,0 74.69,8.79 106.32,26.36 21.71,12.07 40.46,28.27 56.23,48.6 7.21,9.31 13.81,19.46 19.77,30.49 19.04,35.15 28.57,79.08 28.57,131.79 0,52.72 -9.24,96.66 -27.69,131.81 -5.19,9.89 -10.9,19.08 -17.14,27.6 -15.92,21.77 -35.25,39.06 -57.99,51.91 -31.63,17.86 -67.65,26.8 -108.07,26.8zm-2582.41 235.05l1433.86 0.82c2.03,-38.89 5.31,-391.58 -3.24,-400.42 -13.6,-8.47 -94.23,-17.2 -119.1,-24.27 -37.99,-10.78 -73.59,-24.65 -106.45,-41.26 -63.42,-32.05 -126.61,-77.55 -167.85,-123.48 -88.51,-98.6 -167.89,-229.02 -168.69,-417.42 -1.16,-271.85 180.97,-512.34 439.36,-585.57 38.91,-11.02 89.5,-11.88 122.77,-25.45 9.64,-31.13 4.87,-255.74 2.64,-305.85l-1381.21 -0.65c2.79,-8.37 38.09,-36.46 45.07,-42.45 26.77,-22.95 39.04,-15.34 81.66,-15.22l1137.15 0.04c57.85,-0.08 137.69,-4.5 192.96,1.3 2.98,70.76 -9.58,320.3 3.47,365.88l28.72 1.52 0.85 -404.09c-427.93,-8.01 -895.67,-0.2 -1330.8,-0.27 -120.81,-0.03 -95.1,-7.11 -165.9,54.53 -13.4,11.68 -18.55,15.36 -30.32,25.18 -15.17,12.66 -15.8,14.51 -16.04,38.63 -4.64,475.73 0.56,972.27 0.31,1451.84 -0.06,100.68 -4.65,366.11 0.78,446.66zm1512.14 -106.74l27.72 0.08 2.16 -297.39 -29.77 1.24c-5.76,22.09 -5.79,273.77 -0.11,296.07zm-114.38 -926.38l29.63 49.46 141.87 240.21 58.73 -23.82 -131.99 -250.54c21.51,-18.03 49.91,-33.72 73.79,-48.62l241.23 -156.93 -29.06 -47.14c-28.3,7.83 -360.68,220.5 -384.2,237.38zm1191.68 724.27c29.29,0 55.8,-6.74 79.53,-20.21 23.72,-13.47 42.46,-32.66 56.23,-57.56 13.76,-24.89 20.64,-53.75 20.64,-86.55 0,-33.38 -6.88,-62.24 -20.64,-86.55 -13.77,-24.31 -32.51,-43.19 -56.23,-56.66 -23.73,-13.47 -50.24,-20.21 -79.53,-20.21 -29.87,0 -56.52,6.74 -79.95,20.21 -23.43,13.47 -42.17,32.35 -56.25,56.66 -14.05,24.31 -21.08,53.17 -21.08,86.55 0,32.8 7.03,61.66 21.08,86.55 14.08,24.9 32.82,44.09 56.25,57.56 23.43,13.47 50.08,20.21 79.95,20.21zm159.03 68.53l0 -73.44 0 -52.2 5.29 -108.09 -8.8 -108.07 0 -53.33 0 -256.83 84.36 0 0 651.96 -80.85 0zm440.22 5.27c-46.86,-0.58 -88.45,-10.99 -124.77,-31.2 -36.33,-20.2 -64.87,-48.17 -85.67,-83.9 -20.79,-35.73 -31.2,-76.74 -31.2,-123.02 -0.58,-46.27 9.82,-87.13 31.2,-122.57 21.38,-35.44 50.08,-63.4 86.11,-83.92 36.02,-20.5 77.17,-30.75 123.45,-30.75 46.86,0 88.6,10.25 125.21,30.75 36.61,20.52 65.31,48.48 86.1,83.92 20.8,35.44 31.2,76.3 31.2,122.57 0,46.28 -10.4,87.29 -31.2,123.02 -20.79,35.73 -49.63,63.7 -86.55,83.9 -36.9,20.21 -78.2,30.62 -123.88,31.2zm0 -73.8c29.87,0 56.67,-6.74 80.4,-20.21 23.72,-13.47 42.31,-32.66 55.78,-57.56 13.47,-24.89 20.5,-53.75 21.09,-86.55 -0.59,-33.38 -7.62,-62.24 -21.09,-86.55 -13.47,-24.31 -32.06,-43.19 -55.78,-56.66 -23.73,-13.47 -50.53,-20.5 -80.4,-21.09 -29.88,0.59 -56.53,7.62 -79.96,21.09 -23.43,13.47 -42.17,32.35 -56.24,56.66 -14.06,24.31 -21.09,53.17 -21.09,86.55 0,32.8 7.03,61.66 21.09,86.55 14.07,24.9 32.66,44.09 55.8,57.56 23.13,13.47 49.94,20.21 80.4,20.21zm787.28 73.8c-45.11,0 -85.38,-9.96 -120.82,-29.87 -35.44,-19.92 -63.41,-47.74 -83.91,-83.47 -20.5,-35.73 -30.76,-77.33 -30.76,-124.78 0,-47.44 10.26,-88.89 30.76,-124.33 20.5,-35.44 48.47,-63.1 83.91,-83.03 35.44,-19.92 75.71,-29.88 120.82,-29.88 39.24,0 74.68,8.79 106.31,26.36 21.71,12.07 40.46,28.27 56.23,48.6 7.21,9.31 13.81,19.46 19.78,30.49 19.03,35.15 28.56,79.08 28.56,131.79 0,52.72 -9.23,96.66 -27.68,131.81 -5.19,9.89 -10.91,19.08 -17.14,27.6 -15.93,21.77 -35.26,39.06 -57.99,51.91 -31.63,17.86 -67.66,26.8 -108.07,26.8zm7.03 -73.8c29.28,0 55.8,-6.74 79.52,-20.21 23.72,-13.47 42.46,-32.66 56.23,-57.56 13.76,-24.89 20.64,-53.75 20.64,-86.55 0,-33.38 -6.88,-62.24 -20.64,-86.55 -13.77,-24.31 -32.51,-43.19 -56.23,-56.66 -23.72,-13.47 -50.24,-20.21 -79.52,-20.21 -29.88,0 -56.53,6.74 -79.96,20.21 -23.43,13.47 -42.17,32.35 -56.24,56.66 -14.06,24.31 -21.09,53.17 -21.09,86.55 0,32.8 7.03,61.66 21.09,86.55 14.07,24.9 32.81,44.09 56.24,57.56 23.43,13.47 50.08,20.21 79.96,20.21zm159.03 68.53l0 -73.44 0 -52.2 5.28 -108.09 -8.8 -108.07 0 -53.33 0 -256.83 84.36 0 0 651.96 -80.84 0zm241.63 0l-0.88 -465.69 84.36 0.87 0 464.82 -83.48 0zm41.29 -555.31c-16.4,0 -30.01,-5.27 -40.85,-15.82 -10.83,-10.54 -16.26,-23.43 -16.26,-38.66 0,-15.81 5.43,-28.99 16.26,-39.53 10.84,-10.55 24.45,-15.82 40.85,-15.82 16.4,0 30.03,5.12 40.87,15.37 10.83,10.25 16.26,23 16.26,38.23 0,15.81 -5.27,29.14 -15.82,39.98 -10.54,10.84 -24.32,16.25 -41.31,16.25zm492.06 555.31l0 -61.13 0 -37.27 -4.4 -18.46 0 -25.48 16.7 57.99c-3.34,8.26 -7.44,16 -12.3,23.22 -11.36,16.89 -26.88,30.95 -46.57,42.23 -28.12,16.11 -63.55,24.17 -106.31,24.17 -34.56,0 -64.88,-5.86 -90.95,-17.57 -26.06,-11.72 -46.13,-27.98 -60.19,-48.77 -14.06,-20.79 -21.09,-44.36 -21.09,-70.72 0,-25.2 6.01,-48.05 18.02,-68.55 12.01,-20.5 31.63,-36.9 58.87,-49.2 27.24,-12.3 64,-18.45 110.27,-18.45l133.55 0 14.06 0 0 60.62 -14.06 0 -130.03 0c-42.18,0 -70.58,7.03 -85.23,21.09 -14.66,14.06 -21.98,31.04 -21.98,50.97 0,22.85 9.08,41.14 27.25,54.91 18.16,13.76 43.35,20.65 75.56,20.65 31.63,0 59.3,-7.02 83.04,-21.08 23.72,-14.06 40.85,-34.56 51.39,-61.51m0 0l0 -65.03 0 -60.62 0 -16.7c0,-35.73 -10.39,-63.41 -31.18,-83.03 -20.8,-19.62 -51.99,-29.43 -93.58,-29.43 -27.53,0 -54.48,4.53 -80.83,13.61 -26.38,9.08 -48.63,21.24 -66.79,36.47l-35.15 -63.26c24.02,-19.33 52.87,-34.12 86.55,-44.37 33.68,-10.25 68.98,-15.39 105.88,-15.39 63.85,0 113.05,15.53 147.61,46.58 34.56,31.05 51.85,78.49 51.85,142.34l0 281.17 -79.96 0m-1682.43 -765.36c-55.67,-0.69 -105.08,-13.05 -148.24,-37.05 -43.15,-24.02 -77.09,-57.25 -101.78,-99.7 -24.72,-42.47 -37.07,-91.19 -37.07,-146.18 -0.7,-54.99 11.66,-103.53 37.07,-145.64 25.39,-42.1 59.5,-75.33 102.31,-99.7 42.8,-24.36 91.69,-36.54 146.68,-36.54 55.68,0 105.27,12.18 148.77,36.54 43.5,24.37 77.61,57.6 102.31,99.7 24.71,42.11 37.07,90.65 37.07,145.64 0,54.99 -12.36,103.71 -37.07,146.18 -24.7,42.45 -58.98,75.68 -102.83,99.7 -43.85,24 -92.92,36.36 -147.22,37.05zm0 -87.69c35.51,0 67.35,-8.01 95.54,-24.02 28.18,-16.01 50.29,-38.8 66.3,-68.38 16.01,-29.58 24.36,-63.86 25.04,-102.84 -0.68,-39.67 -9.03,-73.94 -25.04,-102.84 -16.01,-28.88 -38.12,-51.32 -66.3,-67.33 -28.19,-16.01 -60.03,-24.36 -95.54,-25.06 -35.49,0.7 -67.16,9.05 -95,25.06 -27.83,16.01 -50.11,38.45 -66.81,67.33 -16.71,28.9 -25.05,63.17 -25.05,102.84 0,38.98 8.34,73.26 25.05,102.84 16.7,29.58 38.79,52.37 66.3,68.38 27.48,16.01 59.32,24.02 95.51,24.02zm425.96 81.43l0 -553.33 96.05 0 0 92.78 0 57.56 -9.38 -37.59c2.79,-6.96 5.91,-13.61 9.38,-19.97 15.64,-28.63 38.26,-51.21 67.86,-67.72 36.2,-20.18 80.74,-30.28 133.64,-30.28l0 97.1c-4.17,-0.7 -8.17,-1.05 -12.01,-1.05 -3.82,0 -7.47,0 -10.96,0 -53.58,0 -96.05,16.01 -127.36,48.03 -31.32,32.01 -46.98,78.3 -46.98,138.85l0 275.62 -100.24 0zm420.75 0l0 -553.33 96.05 0 0 92.78 0 57.56 -9.39 -37.59c2.79,-6.96 5.91,-13.61 9.39,-19.97 15.63,-28.63 38.25,-51.21 67.86,-67.72 36.19,-20.18 80.73,-30.28 133.63,-30.28l0 97.1c-4.17,-0.7 -8.17,-1.05 -12,-1.05 -3.83,0 -7.48,0 -10.97,0 -53.58,0 -96.04,16.01 -127.35,48.03 -31.33,32.01 -46.99,78.3 -46.99,138.85l0 275.62 -100.23 0zm661.9 6.26c-59.16,0 -111.18,-12.17 -156.07,-36.54 -44.89,-24.36 -79.7,-57.76 -104.4,-100.21 -24.71,-42.47 -37.07,-91.19 -37.07,-146.18 0,-54.99 12.01,-103.7 36.02,-146.15 24.02,-42.47 57.07,-75.7 99.17,-99.7 42.12,-24.02 89.62,-36.03 142.52,-36.03 53.6,0 100.92,11.83 141.99,35.5 41.06,23.66 73.26,56.9 96.56,99.7 23.32,42.81 34.98,92.74 34.98,149.82 0,4.17 -0.17,9.04 -0.52,14.62 -0.35,5.56 -0.88,10.78 -1.57,15.66l-449.25 0 -21.59 0 0 -72.05 21.35 0 355.68 0 41.61 0 -40.71 25.06c0.16,-8.57 -0.13,-16.93 -0.9,-25.06 -2.41,-25.52 -9.41,-48.82 -21.03,-69.94 -15.31,-27.85 -36.37,-49.59 -63.16,-65.25 -26.8,-15.66 -57.95,-23.49 -93.44,-23.49 -34.79,0 -65.77,7.83 -92.92,23.49 -27.14,15.66 -48.37,37.58 -63.68,65.77 -11.37,20.93 -18.52,44.07 -21.45,69.42 -1.02,8.79 -1.52,17.84 -1.52,27.16l0 16.69c0,9.68 0.58,19.08 1.76,28.2 3.3,25.67 11.24,49.16 23.82,70.47 17.05,28.88 40.89,51.32 71.51,67.33 30.63,16.01 65.77,24.02 105.45,24.02 32.7,0 62.47,-5.57 89.26,-16.71 26.8,-11.13 50.29,-27.84 70.47,-50.11l55.34 64.73c-25.07,29.23 -56.21,51.5 -93.44,66.81 -37.24,15.32 -78.83,22.97 -124.77,22.97z"/>
  </g>
 </g>
</svg>
